<?xml version="1.0" standalone="no"?><!DOCTYPE svg PUBLIC "-//W3C//DTD SVG 1.1//EN" "http://www.w3.org/Graphics/SVG/1.1/DTD/svg11.dtd"><svg class="icon" width="200px" height="200.00px" viewBox="0 0 1024 1024" version="1.1" xmlns="http://www.w3.org/2000/svg"><path d="M522.24 628.736h-126.976c-12.288 0-20.48 8.192-20.48 20.48v55.296h167.936v-55.296c0-10.24-10.24-20.48-20.48-20.48zM374.784 292.864h71.68v71.68h-71.68zM374.784 389.12h71.68v71.68h-71.68zM374.784 485.376h71.68v71.68h-71.68z" fill="#0061b2" /><path d="M512 0C229.376 0 0 229.376 0 512s229.376 512 512 512 512-229.376 512-512S794.624 0 512 0z m266.24 757.76c0 12.288-8.192 20.48-20.48 20.48H245.76c-12.288 0-20.48-8.192-20.48-20.48v-32.768c0-12.288 8.192-20.48 20.48-20.48h8.192V487.424c0-12.288 8.192-20.48 20.48-20.48h22.528v237.568H327.68V266.24c0-12.288 8.192-20.48 20.48-20.48h278.528c12.288 0 20.48 8.192 20.48 20.48v438.272H675.84V319.488h53.248c12.288 0 20.48 8.192 20.48 20.48v364.544h8.192c12.288 0 20.48 8.192 20.48 20.48V757.76z" fill="#0061b2" /><path d="M471.04 292.864h71.68v71.68H471.04zM471.04 389.12h71.68v71.68H471.04z" fill="#0061b2" /></svg>