<?xml version="1.0" standalone="no"?><!DOCTYPE svg PUBLIC "-//W3C//DTD SVG 1.1//EN" "http://www.w3.org/Graphics/SVG/1.1/DTD/svg11.dtd"><svg class="icon" width="200px" height="200.00px" viewBox="0 0 1024 1024" version="1.1" xmlns="http://www.w3.org/2000/svg"><path d="M480 2.688c-265.152 0-480 214.848-480 480s214.848 480 480 480 480-214.848 480-480S745.152 2.688 480 2.688zM736.64 307.392c-9.28 13.44-44.096 50.432-102.848 108.096 2.752 10.496 19.264 71.488 19.264 71.488l21.632 80.896c0 0 32.64 123.456 37.504 145.536 11.136 50.112-41.28 73.6-55.744 55.744-12.992-16-121.728-200.832-143.488-237.824C511.232 532.928 509.632 534.464 508.032 536 462.144 579.392 419.392 611.904 382.656 636.16c0.768 19.392 3.008 83.456 5.44 122.368 2.944 47.424-28.672 39.872-35.712 30.144-20.224-28.032-56.768-95.232-59.776-100.736l-5.12-11.84-11.776-5.056c-5.504-2.944-72.64-39.424-100.736-59.84-9.728-6.912-17.28-38.528 30.144-35.648 38.976 2.432 102.976 4.672 122.432 5.44 24.32-36.672 56.832-79.36 100.096-125.312C429.248 454.08 430.784 452.48 432.384 450.816c-37.12-21.76-221.888-130.432-237.888-143.424C176.64 292.8 200.064 240.384 250.24 251.648c22.144 4.864 145.6 37.568 145.6 37.568l80.768 21.44c0 0 61.12 16.576 71.616 19.392 57.664-58.688 94.656-93.696 108.096-102.912 20.992-14.272 75.904-46.848 104.64-25.152C781.824 228.032 750.976 286.464 736.64 307.392z" fill="#d81e06" /></svg>