<?xml version="1.0" standalone="no"?><!DOCTYPE svg PUBLIC "-//W3C//DTD SVG 1.1//EN" "http://www.w3.org/Graphics/SVG/1.1/DTD/svg11.dtd"><svg class="icon" width="200px" height="200.00px" viewBox="0 0 1024 1024" version="1.1" xmlns="http://www.w3.org/2000/svg"><path d="M658.969047 546.542477 723.220976 468.595638 641.443056 414.659316 588.864077 414.659316 530.466193 462.603048 536.284095 510.58493Z" fill="#0061b2" /><path d="M349.383356 522.570109 349.383356 504.59234 302.62228 510.58493 267.570297 540.549887 261.75139 552.535067 296.803373 558.528661Z" fill="#0061b2" /><path d="M769.981048 606.508535 816.706986 552.535067 746.601012 492.605152 694.022034 558.528661Z" fill="#0061b2" /><path d="M502.880601 16.397549c-277.410031 0-502.295297 224.885266-502.295297 502.295297s224.885266 502.295297 502.295297 502.295297 502.295297-224.885266 502.295297-502.295297S780.290632 16.397549 502.880601 16.397549zM80.668554 552.535067l29.197938 0 0-5.993594-23.380036-23.972368c-2.300054-45.156761 29.198942-59.967062 29.198942-59.967062 53.763642 8.572747 210.316917 0 210.316917 0 147.527746-22.996526 163.555841-113.904387 163.555841-113.904387-38.223468-30.069369-216.13482 17.979778-216.13482 17.979778 95.088317-79.095361 257.041851-47.943732 257.041851-47.943732 194.183408 2.716694 385.544706 311.746196 385.544706 311.746196 55.227404 59.373726-5.854045 53.972464-5.854045 53.972464-180.455367-92.232074-280.386749-53.972464-280.386749-53.972464 132.963414 9.336754 227.807771 59.967062 227.807771 59.967062-249.620637-80.001929-724.365482-29.966966-724.365482-29.966966l-52.54384-89.93202L80.66755 552.535067zM92.340501 762.399202c0 0-23.206352 18.222734-17.525991-11.986184 0 0 44.251196-80.802079 198.609832-77.945836 0 0 467.428041 3.380307 607.534574 41.952146l75.959014 17.979778C956.91793 732.399106 376.247106 693.26907 92.340501 762.399202z" fill="#0061b2" /><path d="M857.577875 636.473493 875.104871 612.502129 840.051884 570.548979 834.233982 570.548979 793.32695 606.508535Z" fill="#0061b2" /></svg>