<?xml version="1.0" standalone="no"?><!DOCTYPE svg PUBLIC "-//W3C//DTD SVG 1.1//EN" "http://www.w3.org/Graphics/SVG/1.1/DTD/svg11.dtd"><svg class="icon" width="200px" height="183.51px" viewBox="0 0 1116 1024" version="1.1" xmlns="http://www.w3.org/2000/svg"><path d="M176.128 5.12c-26.624 6.144-52.736 25.088-66.048 48.128L97.28 75.264V931.84h-28.16c-34.816 0-56.32 10.24-62.464 29.184-6.656 20.48-3.072 34.304 11.776 48.128l13.312 12.288 515.072 1.536c360.96 1.024 521.216 0 534.528-4.096 13.312-3.584 22.016-10.24 27.648-20.992 18.432-35.84-8.192-66.048-57.856-66.048H1024v-231.936c0-143.36-2.048-238.592-5.12-250.368-7.68-27.136-26.624-47.104-57.344-60.928-24.576-10.752-35.84-12.288-122.88-13.824l-96.256-2.048V228.864c0-128.512-1.024-146.432-9.728-164.864-13.312-29.184-40.448-51.712-72.192-58.368C630.784-1.024 202.24-1.536 176.128 5.12z m476.16 95.232c1.536 4.608 3.072 193.536 3.072 419.84V931.84H184.32v-416.256c0-229.376 1.536-418.304 3.584-419.84 1.536-2.048 106.496-3.584 232.448-3.584 203.776 0 229.376 1.024 231.936 8.192zM931.84 698.88V931.84h-189.44V465.92h189.44v232.96z" fill="#515151" /><path d="M309.248 378.88c-27.648 11.264-35.84 46.08-15.36 68.096 16.384 17.92 31.744 19.968 139.776 17.92 83.968-1.536 93.696-2.56 103.936-11.776 16.384-14.848 20.992-30.208 14.848-48.64-9.728-27.648-23.552-30.72-133.632-30.208-54.272 0-103.936 2.048-109.568 4.608zM308.736 565.76c-29.184 12.288-35.84 43.008-14.848 67.584l12.288 14.336 107.008 1.536c97.792 1.024 108.032 0.512 122.368-8.704 28.672-17.92 25.6-59.392-5.632-74.24-23.04-11.264-196.096-11.776-221.184-0.512z" fill="#515151" /></svg>